# xmcd CD database file
#
# Track frame offsets:
#	150
#	16642
#	36412
#	54935
#	68972
#	87934
#	105785
#	120640
#	136572
#	154078
#	172145
#	182190
#	199278
#
# Disc length: 2793 seconds
#
# Revision: 0
# Processed by: cddbd v1.5.1PL2 Copyright (c) Steve Scherf et al.
# Submitted via: CDex 1.50Beta7
#
DISCID=a40ae70d
DTITLE=Nouvelle Vague - Nouvelle Vague
DYEAR=2004
DGENRE=Jazz
TTITLE0=Love will tear us apart
TTITLE1=Just can't get enough
TTITLE2=In a manner of speaking
TTITLE3=Guns of Brixton
TTITLE4=(This is not) A love song
TTITLE5=Too drunk to fuck
TTITLE6=Marian
TTITLE7=Making plans for Nigel
TTITLE8=A forest
TTITLE9=Psyche
TTITLE10=Teenage kicks
TTITLE11=I melt with you
TTITLE12=Friday night Saturday morning
EXTD=YEAR: 2004
EXTT0=
EXTT1=
EXTT2=
EXTT3=
EXTT4=
EXTT5=
EXTT6=
EXTT7=
EXTT8=
EXTT9=
EXTT10=
EXTT11=
EXTT12=
PLAYORDER=
